<svg width="27" height="30" viewBox="0 0 27 30" fill="none" xmlns="http://www.w3.org/2000/svg">
<path fill-rule="evenodd" clip-rule="evenodd" d="M19.5675 1.17184C19.8446 0.841695 20.184 0.569377 20.5664 0.370438C20.9487 0.171498 21.3665 0.0498362 21.7959 0.0124005C22.2253 -0.0250351 22.6578 0.0224893 23.0688 0.152259C23.4798 0.282029 23.8613 0.491502 24.1913 0.768711L25.5075 1.87309C26.174 2.43236 26.5911 3.23344 26.667 4.10017C26.743 4.96689 26.4716 5.8283 25.9125 6.49496L15.2175 19.2412C14.4423 20.1655 13.4874 20.9227 12.4107 21.4668L7.58817 23.9025C7.34257 24.0264 7.06601 24.0756 6.79273 24.0439C6.51946 24.0123 6.26147 23.9011 6.05072 23.7243C5.83997 23.5475 5.68572 23.3127 5.60705 23.0491C5.52839 22.7855 5.52878 22.5046 5.60817 22.2412L7.17004 17.0681C7.51844 15.9137 8.09765 14.842 8.87254 13.9181L19.5675 1.17184ZM22.3838 2.92309C22.3367 2.8832 22.2822 2.85301 22.2234 2.83425C22.1646 2.81548 22.1027 2.80851 22.0412 2.81374C21.9797 2.81896 21.9198 2.83628 21.865 2.8647C21.8102 2.89312 21.7616 2.93208 21.7219 2.97934L20.7282 4.16621L22.7569 5.87996L23.7582 4.68746C23.8379 4.59221 23.8766 4.46919 23.8657 4.34543C23.8548 4.22168 23.7952 4.10731 23.7 4.02746L22.3819 2.92121L22.3838 2.92309ZM20.9494 8.03434L18.9207 6.32059L11.0269 15.7256C10.4968 16.3581 10.1007 17.0917 9.86254 17.8818L9.24942 19.9125L11.1432 18.9562C11.8797 18.584 12.5329 18.066 13.0632 17.4337L20.9494 8.03434Z" fill="#004938"/>
<path d="M4.21875 5.84998C3.84579 5.84998 3.4881 5.99813 3.22438 6.26186C2.96066 6.52558 2.8125 6.88326 2.8125 7.25623V25.0687C2.8125 25.845 3.4425 26.475 4.21875 26.475H22.0312C22.4042 26.475 22.7619 26.3268 23.0256 26.0631C23.2893 25.7994 23.4375 25.4417 23.4375 25.0687V16.1625C23.4375 15.7895 23.5857 15.4318 23.8494 15.1681C24.1131 14.9044 24.4708 14.7562 24.8438 14.7562C25.2167 14.7562 25.5744 14.9044 25.8381 15.1681C26.1018 15.4318 26.25 15.7895 26.25 16.1625V25.0687C26.25 26.1876 25.8055 27.2607 25.0144 28.0518C24.2232 28.843 23.1501 29.2875 22.0312 29.2875H4.21875C3.09987 29.2875 2.02681 28.843 1.23564 28.0518C0.444474 27.2607 0 26.1876 0 25.0687V7.25623C0 6.13734 0.444474 5.06429 1.23564 4.27312C2.02681 3.48195 3.09987 3.03748 4.21875 3.03748H9.375C9.74796 3.03748 10.1056 3.18563 10.3694 3.44936C10.6331 3.71308 10.7812 4.07076 10.7812 4.44373C10.7812 4.81669 10.6331 5.17437 10.3694 5.43809C10.1056 5.70182 9.74796 5.84998 9.375 5.84998H4.21875Z" fill="#004938"/>
</svg>
