<svg width="25" height="35" viewBox="0 0 25 35" fill="none" xmlns="http://www.w3.org/2000/svg">
<path fill-rule="evenodd" clip-rule="evenodd" d="M21 29.7504C21 30.7164 20.216 31.5004 19.25 31.5004H5.25C4.284 31.5004 3.5 30.7164 3.5 29.7504V15.7504C3.5 14.7844 4.284 14.0004 5.25 14.0004H19.25C20.216 14.0004 21 14.7844 21 15.7504V29.7504ZM8.75 7.00044C8.75 5.07019 10.3197 3.50044 12.25 3.50044C14.1803 3.50044 15.75 5.25044 15.75 7.00044V10.5004H8.75V7.00044ZM19.25 10.5004V7.00044C19.25 3.06819 15.2933 -0.865434 10.787 0.167066C7.4655 0.928316 5.25 4.09734 5.25 7.50459V10.5004H3.5C1.56625 10.5004 0 12.0667 0 14.0004V31.5004C0 33.4342 1.56625 35.0004 3.5 35.0004H21C22.9338 35.0004 24.5 33.4342 24.5 31.5004V14.0004C24.5 12.0667 22.9338 10.5004 21 10.5004H19.25Z" fill="#004938"/>
</svg>
