<svg width="125" height="125" viewBox="0 0 125 125" fill="none" xmlns="http://www.w3.org/2000/svg">
<path d="M11.1766 109.375C5.05379 109.375 0 104.425 0 98.2143V11.1607C0 5.04658 4.9566 0 11.1766 0H93.2035C99.3263 0 104.38 4.94953 104.38 11.1607V52.3098L103.991 52.2127C102.339 51.7275 100.784 51.5334 99.0348 51.5334H98.9376L98.8404 51.2422H98.5488V11.1607C98.5488 8.34627 96.0219 5.82298 93.2035 5.82298H11.1766C8.35819 5.82298 5.83129 8.34627 5.83129 11.1607V98.2143C5.83129 101.029 8.35819 103.552 11.1766 103.552H54.231L54.3282 103.649C55.3973 105.105 54.8141 106.172 54.4254 106.949C54.0366 107.628 53.8423 108.113 54.5226 108.793L55.1057 109.375H11.1766Z" fill="#004938"/>
<path d="M17.4939 21.3509C16.4249 21.3509 15.5502 19.9922 15.5502 18.3424C15.5502 16.6926 16.4249 15.3339 17.4939 15.3339H50.5379C51.607 15.3339 52.4817 16.6926 52.4817 18.3424C52.4817 19.9922 51.607 21.3509 50.5379 21.3509H17.4939Z" fill="#004938"/>
<path d="M50.5379 15.625H17.4939C16.6192 15.625 15.8417 16.7896 15.8417 18.3424C15.8417 19.8952 16.6192 21.0598 17.4939 21.0598H50.5379C51.4126 21.0598 52.1901 19.8952 52.1901 18.3424C52.1901 16.7896 51.5098 15.625 50.5379 15.625ZM17.1052 36.8789C16.2305 36.8789 15.5502 35.6172 15.5502 33.8703C15.5502 32.1234 16.2305 30.8618 17.1052 30.8618H40.8191C41.6938 30.8618 42.3741 32.1234 42.3741 33.8703C42.3741 35.6172 41.6938 36.8789 40.8191 36.8789H17.1052Z" fill="#004938"/>
<path d="M40.819 31.1529H17.1051C16.4248 31.1529 15.9388 32.3175 15.9388 33.8703C15.9388 35.4231 16.4248 36.5877 17.1051 36.5877H40.819C41.4993 36.5877 41.9853 35.4231 41.9853 33.8703C41.9853 32.3175 41.4022 31.1529 40.819 31.1529ZM89.8019 125C86.4003 125 82.7071 124.806 77.9449 124.418C71.0445 123.835 64.7273 120.633 58.6045 114.713L31.003 87.7329C24.5886 81.5217 24.297 73.3695 30.0311 67.1584C32.4608 64.6351 36.2512 63.0823 40.3331 63.0823C44.415 63.0823 48.1081 64.6351 50.4407 67.3525C50.5378 67.4495 50.7322 67.6436 51.121 67.8377C51.2182 67.9348 51.4125 68.0318 51.5097 68.1289V55.1242V48.7189C51.5097 43.7694 51.5097 38.7228 51.6069 33.7733C51.7041 26.3975 57.4382 20.7686 65.0189 20.7686H65.1161C72.4052 20.7686 77.9449 26.1063 78.3337 33.3851C78.4309 35.0349 78.4309 36.7818 78.3337 38.5287V40.7609H79.7915C84.8453 40.7609 88.7328 42.5077 91.5513 46.1956C91.6485 46.3897 92.2316 46.5838 93.0091 46.5838C93.3007 46.5838 93.5922 46.5838 93.7866 46.4868C94.6613 46.3897 95.536 46.2927 96.3135 46.2927C100.201 46.2927 103.603 47.8455 106.518 51.0481C107.004 51.5334 108.073 51.9216 109.045 51.9216H109.434C110.114 51.8245 110.892 51.7275 111.572 51.7275C118.861 51.7275 124.692 56.8711 124.79 63.5675C125.081 75.8928 125.276 88.024 123.915 100.058C122.263 114.616 114.488 122.38 99.3263 124.321C96.5079 124.806 93.3007 125 89.8019 125ZM39.8471 68.6141C37.8062 68.6141 35.8624 69.3905 34.4046 70.7492C32.6552 72.4961 31.6833 74.5341 31.6833 76.7663C31.6833 79.0955 32.7524 81.4247 34.6962 83.3657L38.3893 87.0536C46.4559 95.0116 54.8141 103.164 63.1723 111.219C67.2542 115.101 71.9192 117.624 77.0702 118.595C81.0549 119.371 85.0396 119.759 88.9272 119.759C92.4259 119.759 95.9247 119.468 99.3263 118.789C111.669 116.557 117.306 110.637 118.472 99.1848C119.541 88.2181 119.444 76.9604 119.25 66.0908V64.3439C119.153 60.3649 116.334 57.6475 112.35 57.6475C111.28 57.6475 110.309 57.8416 109.24 58.2298V73.3695C109.24 74.7282 109.24 77.3486 106.518 77.3486H106.421C105.546 77.3486 104.866 77.1545 104.477 76.6692C103.7 75.8928 103.603 74.4371 103.603 73.2725V72.6902C103.603 68.2259 103.7 63.6646 103.603 59.1032C103.505 55.1242 100.687 52.3098 96.7994 52.3098C95.8275 52.3098 94.8557 52.5039 93.981 52.795V68.5171C93.981 69.8758 93.6894 70.9433 93.0091 71.6226C92.5231 72.1079 91.8428 72.399 90.9681 72.399H90.8709C88.2469 72.302 88.2469 69.5846 88.2469 68.6141V62.2088V54.0567C88.2469 52.2127 87.4694 50.2717 86.0115 48.816C84.6509 47.4573 82.8043 46.6809 80.9577 46.6809C80.1802 46.6809 79.3055 46.7779 78.528 47.0691V54.0567C78.528 57.3563 78.528 60.8501 78.3337 64.2469C78.2365 65.1203 77.459 65.7997 76.6815 66.479C76.3899 66.7702 76.0011 67.0613 75.7096 67.3525L75.418 67.6436L75.2236 67.1584C75.0293 66.8672 74.7377 66.5761 74.4461 66.382C73.863 65.7026 73.1827 65.0233 72.7939 64.2469C72.5024 63.6646 72.5996 62.9852 72.5996 62.4029V61.6265V53.1832C72.5996 46.972 72.5996 40.5668 72.5024 34.2585C72.5024 29.6001 69.4895 26.4945 65.1161 26.3975C60.3538 26.3975 57.1466 29.7942 57.1466 34.7438V80.4542L55.8832 81.2306L55.786 81.0365C54.9113 80.066 53.9394 79.0955 53.0647 78.125C51.0238 75.9899 48.8856 73.6607 46.7475 71.5256C44.8037 69.6817 42.374 68.6141 39.8471 68.6141Z" fill="#004938"/>
</svg>
