<svg width="125" height="125" viewBox="0 0 125 125" fill="none" xmlns="http://www.w3.org/2000/svg">
<g clip-path="url(#clip0_89_103)">
<path d="M123.005 71.9628C121.904 71.9628 121.011 72.8559 121.011 73.9574V79.9415H3.98936V73.9574C3.98936 72.8559 3.09628 71.9628 1.99468 71.9628C0.893085 71.9628 0 72.8559 0 73.9574V122.664C0 123.766 0.893085 124.659 1.99468 124.659H123.005C124.107 124.659 125 123.766 125 122.664V73.9574C125 72.8559 124.107 71.9628 123.005 71.9628ZM121.011 87.9202H17.9521C16.8505 87.9202 15.9574 88.8133 15.9574 89.9149C15.9574 91.0165 16.8505 91.9096 17.9521 91.9096H121.011V120.669H3.98936V91.9096H9.9734C11.075 91.9096 11.9681 91.0165 11.9681 89.9149C11.9681 88.8133 11.075 87.9202 9.9734 87.9202H3.98936V83.9309H121.011V87.9202Z" fill="#004938"/>
<path d="M50.3404 75.5029C50.7109 75.8053 51.1569 75.9524 51.6005 75.9524C52.179 75.9524 52.7526 75.7021 53.1468 75.2192L75.2622 48.1274C75.9588 47.2742 75.8319 46.0176 74.9784 45.3207C74.1253 44.6242 72.8686 44.7511 72.1718 45.6045L50.0564 72.6963C49.3601 73.5495 49.487 74.8061 50.3404 75.5029Z" fill="#004938"/>
<path d="M60.163 72.6963C59.4665 73.5495 59.5934 74.8062 60.4468 75.503C60.8173 75.8054 61.2633 75.9524 61.7069 75.9524C62.2854 75.9524 62.859 75.7022 63.2532 75.2192C63.2532 75.2192 85.0583 48.5072 85.3646 48.1322C85.3657 48.1306 85.367 48.1293 85.3684 48.1277C85.4912 47.9772 85.6231 47.8314 85.7598 47.6945C87.9819 45.4726 91.5976 45.4726 93.8197 47.6945L99.3194 53.1942C101.542 55.4163 101.542 59.032 99.3194 61.2543C99.1825 61.3913 99.0367 61.5229 98.8867 61.6455L85.6968 72.4125C84.8434 73.1094 84.7162 74.3657 85.413 75.2192C85.8075 75.7022 86.3811 75.9524 86.9593 75.9524C87.4027 75.9524 87.8492 75.8054 88.2194 75.503L101.41 64.7357C101.663 64.5285 101.909 64.3062 102.14 64.075C105.42 60.7945 105.851 55.7282 103.434 51.9777C108.835 47.1772 115.718 44.5516 123.005 44.5516C124.107 44.5516 125 43.6586 125 42.557C125 41.4554 124.107 40.5623 123.005 40.5623C114.933 40.5623 107.297 43.3995 101.234 48.6003L118.054 31.7812C118.833 31.0022 118.833 29.7394 118.054 28.9604C117.275 28.1814 116.012 28.1814 115.233 28.9604L98.4149 45.7785C103.615 39.716 106.452 32.0809 106.452 24.0091C106.452 22.9075 105.559 22.0144 104.457 22.0144C103.356 22.0144 102.463 22.9075 102.463 24.0091C102.463 31.2961 99.837 38.1788 95.0364 43.5806C91.2859 41.1633 86.2194 41.5934 82.9391 44.8737C82.708 45.1048 82.4856 45.3506 82.2785 45.6043L82.2835 45.6083C82.1944 45.7078 82.1112 45.8096 82.0301 45.9088L60.163 72.6963Z" fill="#004938"/>
<path d="M9.96724 75.9521C11.0688 75.9521 11.9619 75.0591 11.9619 73.9575V25.6208H40.2784V73.9575C40.2784 75.0591 41.1715 75.9521 42.2731 75.9521C43.3747 75.9521 44.2678 75.0591 44.2678 73.9575V24.2647L51.771 13.7487L57.3954 21.6311H52.0744C50.9728 21.6311 50.0797 22.5242 50.0797 23.6258C50.0797 24.7274 50.9728 25.6205 52.0744 25.6205H59.2742V49.4979C59.2742 50.5995 60.1672 51.4926 61.2688 51.4926C62.3704 51.4926 63.2635 50.5995 63.2635 49.4979V23.6261C63.2635 23.2107 63.1337 22.8056 62.8925 22.4676L53.7656 9.67609V2.33593C53.7656 1.23433 52.8726 0.341248 51.771 0.341248H19.4651C18.3635 0.341248 17.4704 1.23433 17.4704 2.33593V9.67582L8.3433 22.4676C8.10208 22.8056 7.97229 23.2107 7.97229 23.6261V73.9575C7.97256 75.0591 8.86538 75.9521 9.96724 75.9521ZM21.4598 4.33061H49.7763V8.31997H21.4598V4.33061ZM20.4922 12.3093H47.8973L41.2457 21.6314H13.8406L20.4922 12.3093Z" fill="#004938"/>
<path d="M115.027 75.9524C116.128 75.9524 117.021 75.0593 117.021 73.9577V70.6434C117.021 66.4955 114.4 62.7359 110.498 61.2881C109.465 60.9051 108.317 61.4314 107.934 62.4641C107.55 63.4971 108.077 64.645 109.11 65.0282C111.456 65.8987 113.032 68.1551 113.032 70.6434V73.9577C113.032 75.0593 113.925 75.9524 115.027 75.9524Z" fill="#004938"/>
</g>
<defs>
<clipPath id="clip0_89_103">
<rect width="125" height="125" fill="white"/>
</clipPath>
</defs>
</svg>
