<svg width="25" height="35" viewBox="0 0 25 35" fill="none" xmlns="http://www.w3.org/2000/svg">
<path fill-rule="evenodd" clip-rule="evenodd" d="M21 29.75C21 30.716 20.216 31.5 19.25 31.5H5.25C4.284 31.5 3.5 30.716 3.5 29.75V15.75C3.5 14.784 4.284 14 5.25 14H19.25C20.216 14 21 14.784 21 15.75V29.75ZM8.75 10.5V7.23162C8.75 5.83512 9.47975 4.48177 10.7328 3.86577C12.8678 2.81577 14.945 4.18425 15.5645 5.94475C15.7955 6.601 16.464 7.00005 17.1588 7.00005C18.3488 7.00005 19.2378 5.81357 18.8108 4.70232C17.591 1.51907 13.9912 -0.950022 10.115 0.357228C7.126 1.36523 5.25 4.3507 5.25 7.5042V10.5C2.35025 10.5 0 12.8503 0 15.75V29.75C0 32.6498 2.35025 35 5.25 35H19.25C22.1497 35 24.5 32.6498 24.5 29.75V15.75C24.5 12.8503 22.1497 10.5 19.25 10.5H8.75Z" fill="#004938"/>
</svg>
