<svg width="122" height="126" viewBox="0 0 122 126" fill="none" xmlns="http://www.w3.org/2000/svg">
<path d="M119.006 24.7074C122.998 28.7187 122.998 35.2483 119.006 39.2599L98.7356 59.6304V119.349C98.7356 123.017 95.7668 126 92.1199 126H6.6186C2.96878 126 0 123.017 0 119.349V28.2351C0 27.4292 0.317865 26.6537 0.886741 26.085L25.9572 0.891107C26.5231 0.31943 27.2948 0 28.0968 0H92.1199C95.7668 0 98.7356 2.9834 98.7356 6.65119V23.3662L100.963 21.1277C104.955 17.1163 111.452 17.1163 115.444 21.1277L119.006 24.7074ZM114.724 34.9594C116.358 33.3172 116.358 30.6498 114.724 29.0076L111.165 25.4311C109.531 23.7889 106.876 23.7889 105.242 25.4311L101.429 29.2631L110.911 38.7913L114.724 34.9594ZM58.2306 91.7311L106.632 43.0918L97.1499 33.5636L48.7487 82.2029L58.2306 91.7311ZM72.6966 49.5334L92.81 29.3209C92.7253 29.0472 92.6829 28.7551 92.6829 28.4542V6.65119C92.6829 6.33791 92.4317 6.08246 92.1199 6.08246H31.1231V24.6281C31.1231 28.293 28.1543 31.2764 24.5075 31.2764H6.05266V119.349C6.05266 119.662 6.30686 119.918 6.6186 119.918H92.1199C92.4317 119.918 92.6829 119.662 92.6829 119.349V65.7131L60.3701 98.1847C60.0009 98.5558 59.541 98.8233 59.0384 98.9633C59.0384 98.9633 39.954 104.286 39.9389 104.289C39.8421 104.316 39.1792 104.389 39.1763 104.389H23.6692C21.9986 104.389 20.6429 103.03 20.6429 101.348C20.6429 99.6689 21.9986 98.3065 23.6692 98.3065H36.8763L41.5519 81.391C41.691 80.883 41.9575 80.4238 42.3268 80.0527L42.3753 80.004H23.6692C21.9986 80.004 20.6429 78.6416 20.6429 76.9628C20.6429 75.2839 21.9986 73.9215 23.6692 73.9215H48.4279L66.6437 55.6161H23.6692C21.9986 55.6161 20.6429 54.2566 20.6429 52.5748C20.6429 50.896 21.9986 49.5336 23.6692 49.5336H72.6966V49.5334ZM43.5252 96.9803L52.4228 94.4987L45.9947 88.039L43.5252 96.9803ZM25.0705 24.6284V10.3859L10.335 25.1939H24.5075C24.8192 25.1939 25.0705 24.9417 25.0705 24.6284Z" fill="#004938"/>
<path d="M114.724 29.0076C116.358 30.6498 116.358 33.3172 114.724 34.9594L110.911 38.7913L101.429 29.263L105.242 25.4311C106.876 23.7889 109.531 23.7889 111.165 25.4311L114.724 29.0076Z" fill="white"/>
<path d="M58.2321 91.7333L106.633 43.094L97.151 33.5652L48.75 82.2045L58.2321 91.7333Z" fill="white"/>
<path d="M92.8097 29.3209L72.6963 49.5333H23.6692C21.9985 49.5333 20.6428 50.8957 20.6428 52.5746C20.6428 54.2564 21.9985 55.6158 23.6692 55.6158H66.6436L48.4279 73.9213H23.6692C21.9985 73.9213 20.6428 75.2837 20.6428 76.9625C20.6428 78.6414 21.9985 80.0037 23.6692 80.0037H42.3752L42.3267 80.0525C41.9574 80.4236 41.6912 80.8828 41.5519 81.3907L36.8762 98.3063H23.6692C21.9985 98.3063 20.6428 99.6686 20.6428 101.348C20.6428 103.029 21.9985 104.389 23.6692 104.389H39.1762C39.1792 104.389 39.8421 104.316 39.9388 104.288C39.954 104.285 59.0384 98.9631 59.0384 98.9631C59.5407 98.8233 60.0008 98.5556 60.3701 98.1845L92.6826 65.7128V119.349C92.6826 119.662 92.4314 119.918 92.1196 119.918H6.61855C6.30681 119.918 6.05261 119.662 6.05261 119.349V31.2766H24.5074C28.1543 31.2766 31.1231 28.2932 31.1231 24.6284V6.0827H92.1196C92.4314 6.0827 92.6826 6.33815 92.6826 6.65143V28.4544C92.6826 28.7554 92.725 29.0472 92.8097 29.3209Z" fill="white"/>
<path d="M52.4228 94.4987L43.5253 96.9803L45.995 88.039L52.4228 94.4987Z" fill="white"/>
<path d="M25.0705 10.3859V24.6281C25.0705 24.9414 24.8193 25.1939 24.5075 25.1939H10.3351L25.0705 10.3859Z" fill="white"/>
</svg>
